<svg id="visual" viewBox="0 0 1000 2000" width="1000" height="2000" xmlns="http://www.w3.org/2000/svg" xmlns:xlink="http://www.w3.org/1999/xlink" version="1.1"><rect width="1000" height="2000" fill="#c9bba9"></rect><g><g transform="translate(755 263)"><path d="M117.3 -38.1C131.8 6.4 109.3 62.9 64.8 97.1C20.4 131.2 -46 142.9 -88.3 113.9C-130.7 85 -149 15.3 -130.3 -35C-111.5 -85.3 -55.8 -116.3 -2.2 -115.6C51.4 -114.9 102.8 -82.5 117.3 -38.1Z" fill="none" stroke="#F7760E" stroke-width="29"></path></g><g transform="translate(612 757)"><path d="M111.4 -37.9C126.5 10.3 108.5 67.5 69.1 96.5C29.6 125.5 -31.4 126.3 -71 97.6C-110.5 68.8 -128.7 10.6 -113.3 -38C-97.9 -86.5 -49 -125.4 -0.4 -125.2C48.1 -125.1 96.3 -86 111.4 -37.9Z" stroke="#F7760E" fill="none" stroke-width="29"></path></g><g transform="translate(264 1227)"><path d="M110.7 -37.2C125.2 8.9 106.3 64.6 70.5 88.5C34.7 112.5 -17.9 104.8 -57 76.8C-96.1 48.8 -121.6 0.5 -109.9 -41.8C-98.1 -84 -49.1 -120.2 -0.5 -120C48 -119.9 96.1 -83.4 110.7 -37.2Z" stroke="#F7760E" fill="none" stroke-width="29"></path></g><g transform="translate(718 1471)"><path d="M108 -35.5C121.8 7.4 102.4 60.8 63.8 89C25.3 117.3 -32.3 120.5 -71.9 93.1C-111.6 65.7 -133.2 7.7 -118.2 -36.8C-103.3 -81.3 -51.6 -112.3 -2.3 -111.6C47.1 -110.9 94.2 -78.4 108 -35.5Z" stroke="#F7760E" fill="none" stroke-width="29"></path></g><g transform="translate(375 1764)"><path d="M104 -30.1C118 9.4 101.2 62.7 63.3 91.1C25.5 119.5 -33.2 123 -67.7 97.1C-102.2 71.1 -112.4 15.6 -97.1 -25.7C-81.7 -67 -40.9 -94.1 2.1 -94.8C45 -95.4 90 -69.6 104 -30.1Z" stroke="#F7760E" fill="none" stroke-width="29"></path></g><g transform="translate(201 419)"><path d="M119.9 -43.1C133.5 2.7 107.4 57.3 64.2 88.8C20.9 120.4 -39.4 128.8 -76.8 102.4C-114.2 76.1 -128.6 14.8 -112 -35.3C-95.3 -85.4 -47.7 -124.4 2.8 -125.3C53.2 -126.2 106.4 -89 119.9 -43.1Z" stroke="#F7760E" fill="none" stroke-width="29"></path></g><g transform="translate(201 827)"><path d="M112.5 -36.5C128.8 13.4 113.1 73.7 73.1 103.4C33.2 133 -31 132.1 -73.4 101.2C-115.8 70.4 -136.3 9.7 -120.4 -39.7C-104.5 -89 -52.3 -127.2 -2.1 -126.5C48.2 -125.8 96.3 -86.4 112.5 -36.5Z" stroke="#F7760E" fill="none" stroke-width="29"></path></g></g></svg>