<svg id="visual" viewBox="0 0 2000 2000" width="2000" height="2000" xmlns="http://www.w3.org/2000/svg" xmlns:xlink="http://www.w3.org/1999/xlink" version="1.1"><rect width="2000" height="2000" fill="#d0c3b1"></rect><g><g transform="translate(1342 1331)"><path d="M109.5 -46.7C122 2.9 98.5 53.1 57.9 83.5C17.3 113.9 -40.4 124.5 -76.8 99.5C-113.3 74.5 -128.4 13.9 -112.1 -41C-95.7 -95.9 -47.9 -145.2 0.3 -145.3C48.5 -145.4 97 -96.3 109.5 -46.7Z" fill="none" stroke="#468543" stroke-width="29"></path></g><g transform="translate(1208 1795)"><path d="M101.6 -23.4C119.3 21.5 112.8 83.9 79.5 107.7C46.2 131.6 -13.9 116.8 -60.2 83.1C-106.4 49.5 -138.7 -3.1 -126.4 -40.6C-114 -78.2 -57 -100.8 -7.5 -98.3C41.9 -95.9 83.9 -68.4 101.6 -23.4Z" stroke="#468543" fill="none" stroke-width="29"></path></g><g transform="translate(312 269)"><path d="M80.1 -22.9C91.1 8 78.7 49.6 51.4 68.9C24.2 88.3 -17.8 85.3 -42.6 65.7C-67.3 46.1 -74.7 9.7 -64.7 -19.7C-54.7 -49.1 -27.4 -71.4 3.6 -72.6C34.5 -73.8 69 -53.7 80.1 -22.9Z" stroke="#468543" fill="none" stroke-width="29"></path></g><g transform="translate(1152 604)"><path d="M80.1 -17.7C95.7 21.7 94.4 74.9 66.5 96.3C38.7 117.6 -15.7 107 -56.1 77.6C-96.5 48.1 -123 -0.2 -111.3 -34.4C-99.6 -68.6 -49.8 -88.6 -8.7 -85.8C32.3 -82.9 64.6 -57.2 80.1 -17.7Z" stroke="#468543" fill="none" stroke-width="29"></path></g><g transform="translate(858 1317)"><path d="M70.8 -25.6C80 5.4 67.7 40.8 41.5 60.7C15.2 80.7 -24.9 85.1 -49.1 67.6C-73.3 50 -81.5 10.4 -70.7 -22.8C-59.8 -56.1 -29.9 -82.9 0.4 -83.1C30.8 -83.2 61.6 -56.6 70.8 -25.6Z" stroke="#468543" fill="none" stroke-width="29"></path></g><g transform="translate(485 1590)"><path d="M77.4 -20.2C88.7 9.9 78.5 52 54.5 67.8C30.4 83.6 -7.6 73.1 -31.5 53.4C-55.5 33.6 -65.5 4.5 -57.9 -20.3C-50.4 -45.2 -25.2 -65.8 3.9 -67.1C33 -68.3 66 -50.2 77.4 -20.2Z" stroke="#468543" fill="none" stroke-width="29"></path></g><g transform="translate(1609 1801)"><path d="M101.9 -31.6C116.4 11.6 101.8 65.7 63.2 95.9C24.6 126.1 -38 132.2 -72.2 105.9C-106.4 79.5 -112.2 20.6 -95.5 -25.7C-78.7 -72 -39.3 -105.6 2.2 -106.3C43.7 -107 87.4 -74.8 101.9 -31.6Z" stroke="#468543" fill="none" stroke-width="29"></path></g><g transform="translate(757 616)"><path d="M87.2 -25C102.3 18.3 96.6 71.7 65.9 95C35.3 118.3 -20.4 111.5 -52.6 85C-84.8 58.6 -93.6 12.7 -81 -27.2C-68.3 -67.1 -34.2 -100.9 0.9 -101.2C36 -101.5 72 -68.3 87.2 -25Z" stroke="#468543" fill="none" stroke-width="29"></path></g><g transform="translate(1438 200)"><path d="M75.3 -20.3C86.3 9.4 76.2 50.2 49.8 69.5C23.5 88.9 -19.1 86.9 -46.2 66.5C-73.3 46.1 -84.9 7.4 -74.6 -21.3C-64.4 -50 -32.2 -68.7 0 -68.7C32.2 -68.7 64.3 -50 75.3 -20.3Z" stroke="#468543" fill="none" stroke-width="29"></path></g><g transform="translate(257 1254)"><path d="M104.9 -35.3C115.9 -0.2 90.9 45.3 56.1 68.6C21.2 91.9 -23.6 93 -53.8 71.6C-83.9 50.2 -99.5 6.4 -88.1 -29.2C-76.8 -64.9 -38.4 -92.3 4.3 -93.7C46.9 -95.1 93.9 -70.4 104.9 -35.3Z" stroke="#468543" fill="none" stroke-width="29"></path></g><g transform="translate(375 828)"><path d="M96 -29C112 18.1 104.1 75.2 72.1 98.2C40.1 121.1 -15.9 110 -49.6 82.2C-83.3 54.4 -94.8 9.9 -82.9 -31.6C-70.9 -73.2 -35.4 -111.8 2.3 -112.6C40 -113.3 80 -76.2 96 -29Z" stroke="#468543" fill="none" stroke-width="29"></path></g><g transform="translate(1718 635)"><path d="M105.7 -34.7C117.4 1.9 94 49.6 58.1 74.4C22.1 99.3 -26.5 101.3 -63.1 77C-99.7 52.8 -124.4 2.2 -111.8 -35.4C-99.3 -73 -49.7 -97.6 -1.4 -97.1C46.9 -96.7 93.9 -71.2 105.7 -34.7Z" stroke="#468543" fill="none" stroke-width="29"></path></g><g transform="translate(1749 1199)"><path d="M85.1 -19C99.5 16.7 93 67.9 61.3 93C29.5 118.2 -27.5 117.2 -64.2 90.1C-101 63 -117.6 9.7 -103.5 -25.6C-89.4 -60.8 -44.7 -78 -4.7 -76.5C35.3 -75 70.7 -54.7 85.1 -19Z" stroke="#468543" fill="none" stroke-width="29"></path></g><g transform="translate(888 219)"><path d="M97 -37.6C107.7 1.3 85.8 44.7 52.9 67.3C19.9 89.9 -24.1 91.9 -55.8 70.4C-87.5 48.9 -106.8 3.9 -95.5 -35.9C-84.1 -75.8 -42.1 -110.5 0.6 -110.7C43.2 -110.9 86.4 -76.5 97 -37.6Z" stroke="#468543" fill="none" stroke-width="29"></path></g><g transform="translate(1425 929)"><path d="M121.9 -35C138 9.8 117.2 71.3 76.2 99.8C35.3 128.3 -25.8 124 -61.4 95.5C-97 67.1 -107.1 14.5 -92.6 -28.2C-78.1 -70.8 -39 -103.6 6.9 -105.8C52.9 -108.1 105.8 -79.8 121.9 -35Z" stroke="#468543" fill="none" stroke-width="29"></path></g></g></svg>