<svg id="visual" viewBox="0 0 450 900" width="450" height="900" xmlns="http://www.w3.org/2000/svg" xmlns:xlink="http://www.w3.org/1999/xlink" version="1.1"><rect x="0" y="0" width="450" height="900" fill="#931C1C"></rect><path d="M0 648L64 650L129 608L193 530L257 531L321 557L386 527L450 633L450 901L386 901L321 901L257 901L193 901L129 901L64 901L0 901Z" fill="#f5730a"></path><path d="M0 682L64 611L129 598L193 698L257 605L321 620L386 678L450 692L450 901L386 901L321 901L257 901L193 901L129 901L64 901L0 901Z" fill="#da5b09"></path><path d="M0 747L64 673L129 681L193 732L257 726L321 671L386 712L450 670L450 901L386 901L321 901L257 901L193 901L129 901L64 901L0 901Z" fill="#be4407"></path><path d="M0 802L64 784L129 795L193 778L257 761L321 742L386 731L450 813L450 901L386 901L321 901L257 901L193 901L129 901L64 901L0 901Z" fill="#a32d04"></path><path d="M0 819L64 846L129 805L193 855L257 793L321 815L386 804L450 795L450 901L386 901L321 901L257 901L193 901L129 901L64 901L0 901Z" fill="#871400"></path></svg>