<svg id="visual" viewBox="0 0 9999 1000" width="9999" height="1000" xmlns="http://www.w3.org/2000/svg" xmlns:xlink="http://www.w3.org/1999/xlink" version="1.1"><path d="M0 744L111.2 769.7C222.3 795.3 444.7 846.7 666.8 844.5C889 842.3 1111 786.7 1333.2 787.5C1555.3 788.3 1777.7 845.7 1999.8 847.2C2222 848.7 2444 794.3 2666.2 787.7C2888.3 781 3110.7 822 3333 858.8C3555.3 895.7 3777.7 928.3 3999.8 914.3C4222 900.3 4444 839.7 4666.2 822.2C4888.3 804.7 5110.7 830.3 5332.8 846C5555 861.7 5777 867.3 5999.2 873.7C6221.3 880 6443.7 887 6666 884.3C6888.3 881.7 7110.7 869.3 7332.8 876.5C7555 883.7 7777 910.3 7999.2 905.2C8221.3 900 8443.7 863 8665.8 854C8888 845 9110 864 9332.2 850.5C9554.3 837 9776.7 791 9887.8 768L9999 745" fill="none" stroke-linecap="round" stroke-linejoin="miter" stroke="#006000" stroke-width="58"></path></svg>