<svg id="visual" viewBox="0 0 270 1000" width="270" height="1000" xmlns="http://www.w3.org/2000/svg" xmlns:xlink="http://www.w3.org/1999/xlink" version="1.1"><rect x="0" y="0" width="270" height="1000" fill="#E1E1E1"></rect><defs><linearGradient id="grad1_0" x1="0%" y1="100%" x2="100%" y2="0%"><stop offset="30%" stop-color="#ac6112" stop-opacity="1"></stop><stop offset="70%" stop-color="#ac6112" stop-opacity="1"></stop></linearGradient></defs><defs><linearGradient id="grad1_1" x1="0%" y1="100%" x2="100%" y2="0%"><stop offset="30%" stop-color="#ac6112" stop-opacity="1"></stop><stop offset="70%" stop-color="#cf9f7a" stop-opacity="1"></stop></linearGradient></defs><defs><linearGradient id="grad1_2" x1="0%" y1="100%" x2="100%" y2="0%"><stop offset="30%" stop-color="#e1e1e1" stop-opacity="1"></stop><stop offset="70%" stop-color="#cf9f7a" stop-opacity="1"></stop></linearGradient></defs><defs><linearGradient id="grad2_0" x1="0%" y1="100%" x2="100%" y2="0%"><stop offset="30%" stop-color="#ac6112" stop-opacity="1"></stop><stop offset="70%" stop-color="#ac6112" stop-opacity="1"></stop></linearGradient></defs><defs><linearGradient id="grad2_1" x1="0%" y1="100%" x2="100%" y2="0%"><stop offset="30%" stop-color="#cf9f7a" stop-opacity="1"></stop><stop offset="70%" stop-color="#ac6112" stop-opacity="1"></stop></linearGradient></defs><defs><linearGradient id="grad2_2" x1="0%" y1="100%" x2="100%" y2="0%"><stop offset="30%" stop-color="#cf9f7a" stop-opacity="1"></stop><stop offset="70%" stop-color="#e1e1e1" stop-opacity="1"></stop></linearGradient></defs><g transform="translate(270, 1000)"><path d="M-243 0C-220.8 -23.7 -198.6 -47.4 -190.3 -78.8C-182 -110.3 -187.7 -149.5 -171.8 -171.8C-156 -194.2 -118.7 -199.7 -86.5 -208.8C-54.3 -217.9 -27.1 -230.4 0 -243L0 0Z" fill="#dac0ac"></path><path d="M-162 0C-147.2 -15.8 -132.4 -31.6 -126.9 -52.6C-121.4 -73.5 -125.1 -99.6 -114.6 -114.6C-104 -129.5 -79.1 -133.2 -57.7 -139.2C-36.2 -145.2 -18.1 -153.6 0 -162L0 0Z" fill="#bf8049"></path><path d="M-81 0C-73.6 -7.9 -66.2 -15.8 -63.4 -26.3C-60.7 -36.8 -62.6 -49.8 -57.3 -57.3C-52 -64.7 -39.6 -66.6 -28.8 -69.6C-18.1 -72.6 -9 -76.8 0 -81L0 0Z" fill="#ac6112"></path></g><g transform="translate(0, 0)"><path d="M243 0C227.5 28.7 212.1 57.4 196.8 81.5C181.5 105.6 166.4 125 150.6 150.6C134.8 176.2 118.2 208.1 93 224.5C67.8 240.9 33.9 242 0 243L0 0Z" fill="#dac0ac"></path><path d="M162 0C151.7 19.1 141.4 38.3 131.2 54.3C121 70.4 111 83.3 100.4 100.4C89.9 117.5 78.8 138.7 62 149.7C45.2 160.6 22.6 161.3 0 162L0 0Z" fill="#bf8049"></path><path d="M81 0C75.8 9.6 70.7 19.1 65.6 27.2C60.5 35.2 55.5 41.7 50.2 50.2C44.9 58.7 39.4 69.4 31 74.8C22.6 80.3 11.3 80.7 0 81L0 0Z" fill="#ac6112"></path></g></svg>