<svg id="visual" viewBox="0 0 1000 2000" width="1000" height="2000" xmlns="http://www.w3.org/2000/svg" xmlns:xlink="http://www.w3.org/1999/xlink" version="1.1"><rect width="1000" height="2000" fill="#d0c3b1"></rect><g><g transform="translate(552 1102)"><path d="M68.5 -28.5C77.7 6 66.5 41 39.4 62.7C12.3 84.3 -30.5 92.7 -56.4 74.6C-82.3 56.5 -91.2 12 -79 -26.7C-66.7 -65.4 -33.4 -98.2 -1.9 -97.6C29.7 -97 59.3 -63 68.5 -28.5Z" fill="none" stroke="#468543" stroke-width="29"></path></g><g transform="translate(146 901)"><path d="M71.1 -21.8C81.2 7.9 70.8 45.5 45.4 64.4C20 83.2 -20.3 83.3 -44.1 65C-67.9 46.7 -75.1 10 -65 -19.7C-54.9 -49.4 -27.4 -72.2 1.5 -72.7C30.5 -73.2 61 -51.5 71.1 -21.8Z" stroke="#468543" fill="none" stroke-width="29"></path></g><g transform="translate(297 258)"><path d="M66.3 -20.9C74.7 4.2 62.4 36.6 39.2 53.4C15.9 70.2 -18.4 71.3 -40.7 55.3C-63.1 39.2 -73.5 6 -64.7 -19.6C-56 -45.3 -28 -63.2 0.5 -63.4C29 -63.6 58 -45.9 66.3 -20.9Z" stroke="#468543" fill="none" stroke-width="29"></path></g><g transform="translate(790 221)"><path d="M50.7 -20C57 2.8 47.3 27.3 27.6 42.8C7.9 58.2 -21.9 64.7 -42.5 51.3C-63.2 38 -74.8 5 -66.2 -21.1C-57.6 -47.1 -28.8 -66.1 -3.3 -65.1C22.2 -64 44.4 -42.8 50.7 -20Z" stroke="#468543" fill="none" stroke-width="29"></path></g><g transform="translate(602 587)"><path d="M39.3 -12.7C44.4 3 37.6 22.6 23.2 33.4C8.9 44.1 -13 46 -28.7 35.5C-44.4 25 -54.1 2.1 -48.3 -14.5C-42.5 -31.1 -21.2 -41.5 -2.1 -40.9C17.1 -40.2 34.2 -28.4 39.3 -12.7Z" stroke="#468543" fill="none" stroke-width="29"></path></g><g transform="translate(165 1317)"><path d="M76.8 -25.5C86.8 5.9 73.5 44.4 48.6 61C23.8 77.7 -12.7 72.6 -39.3 53.4C-65.9 34.2 -82.7 1 -74.5 -27.9C-66.4 -56.8 -33.2 -81.3 0.1 -81.4C33.4 -81.4 66.7 -57 76.8 -25.5Z" stroke="#468543" fill="none" stroke-width="29"></path></g><g transform="translate(840 1263)"><path d="M65.9 -21.4C76.1 9.8 68.4 46.8 45.2 64C22 81.3 -16.7 78.9 -41.8 60.1C-66.9 41.2 -78.3 6 -69.1 -23.9C-59.8 -53.9 -29.9 -78.7 -1 -78.4C27.9 -78 55.8 -52.6 65.9 -21.4Z" stroke="#468543" fill="none" stroke-width="29"></path></g><g transform="translate(512 1509)"><path d="M36.5 -12.6C41.1 2.3 34.4 20.2 20.7 30.5C7.1 40.9 -13.4 43.8 -29.6 33.7C-45.9 23.6 -57.9 0.4 -52.2 -15.9C-46.6 -32.3 -23.3 -41.8 -3.7 -40.6C16 -39.5 31.9 -27.5 36.5 -12.6Z" stroke="#468543" fill="none" stroke-width="29"></path></g><g transform="translate(786 1699)"><path d="M42.8 -15.8C48.2 2.6 40.1 23.4 24.5 35C8.9 46.7 -14.3 49.2 -30.9 38.2C-47.4 27.2 -57.2 2.7 -51 -16.9C-44.7 -36.6 -22.4 -51.4 -1.8 -50.8C18.7 -50.2 37.5 -34.2 42.8 -15.8Z" stroke="#468543" fill="none" stroke-width="29"></path></g><g transform="translate(281 556)"><path d="M95.7 -26.6C108 6.8 91 54.3 57.2 78.9C23.3 103.5 -27.2 105.3 -60.5 81.6C-93.7 57.8 -109.5 8.5 -96.5 -25.8C-83.6 -60.1 -41.8 -79.6 0 -79.5C41.7 -79.5 83.4 -60.1 95.7 -26.6Z" stroke="#468543" fill="none" stroke-width="29"></path></g><g transform="translate(511 1845)"><path d="M79.7 -19.5C92.7 14.1 85.4 60.7 56.5 82.9C27.6 105.1 -22.8 102.9 -55.3 78.7C-87.8 54.5 -102.4 8.2 -90.2 -24.3C-78.1 -56.8 -39 -75.6 -2.8 -74.7C33.4 -73.8 66.7 -53.2 79.7 -19.5Z" stroke="#468543" fill="none" stroke-width="29"></path></g><g transform="translate(861 926)"><path d="M52.8 -16.8C58.7 1.1 47.2 25.1 27.8 39.5C8.3 53.9 -18.9 58.7 -34.4 47.4C-49.9 36.2 -53.7 8.7 -46 -11.6C-38.3 -31.9 -19.2 -45.2 2.1 -45.9C23.4 -46.6 46.9 -34.7 52.8 -16.8Z" stroke="#468543" fill="none" stroke-width="29"></path></g><g transform="translate(172 1718)"><path d="M39.4 -15.2C45.4 5.7 40.7 27.6 27.1 37.5C13.5 47.4 -9 45.3 -25.2 33.8C-41.5 22.2 -51.5 1.1 -46.3 -18.8C-41 -38.6 -20.5 -57.3 -1.9 -56.6C16.7 -56 33.4 -36.1 39.4 -15.2Z" stroke="#468543" fill="none" stroke-width="29"></path></g><g transform="translate(408 805)"><path d="M54.4 -18C59.6 -1.8 45.3 20.5 27 32.7C8.7 45 -13.7 47.3 -29.9 36.6C-46.1 25.9 -56.1 2.2 -50.1 -15.2C-44.1 -32.5 -22 -43.6 1.3 -44C24.6 -44.4 49.2 -34.2 54.4 -18Z" stroke="#468543" fill="none" stroke-width="29"></path></g></g></svg>