<svg id="visual" viewBox="0 0 270 1000" width="270" height="1000" xmlns="http://www.w3.org/2000/svg" xmlns:xlink="http://www.w3.org/1999/xlink" version="1.1"><rect x="0" y="0" width="270" height="1000" fill="#001220"></rect><defs><linearGradient id="grad1_0" x1="0%" y1="0%" x2="100%" y2="100%"><stop offset="30%" stop-color="#fbae3c" stop-opacity="1"></stop><stop offset="70%" stop-color="#fbae3c" stop-opacity="1"></stop></linearGradient></defs><defs><linearGradient id="grad1_1" x1="0%" y1="0%" x2="100%" y2="100%"><stop offset="30%" stop-color="#fbae3c" stop-opacity="1"></stop><stop offset="70%" stop-color="#f48350" stop-opacity="1"></stop></linearGradient></defs><defs><linearGradient id="grad1_2" x1="0%" y1="0%" x2="100%" y2="100%"><stop offset="30%" stop-color="#d96162" stop-opacity="1"></stop><stop offset="70%" stop-color="#f48350" stop-opacity="1"></stop></linearGradient></defs><defs><linearGradient id="grad1_3" x1="0%" y1="0%" x2="100%" y2="100%"><stop offset="30%" stop-color="#d96162" stop-opacity="1"></stop><stop offset="70%" stop-color="#af4b6d" stop-opacity="1"></stop></linearGradient></defs><defs><linearGradient id="grad1_4" x1="0%" y1="0%" x2="100%" y2="100%"><stop offset="30%" stop-color="#7c3e6b" stop-opacity="1"></stop><stop offset="70%" stop-color="#af4b6d" stop-opacity="1"></stop></linearGradient></defs><defs><linearGradient id="grad1_5" x1="0%" y1="0%" x2="100%" y2="100%"><stop offset="30%" stop-color="#7c3e6b" stop-opacity="1"></stop><stop offset="70%" stop-color="#49335c" stop-opacity="1"></stop></linearGradient></defs><defs><linearGradient id="grad1_6" x1="0%" y1="0%" x2="100%" y2="100%"><stop offset="30%" stop-color="#1d2540" stop-opacity="1"></stop><stop offset="70%" stop-color="#49335c" stop-opacity="1"></stop></linearGradient></defs><defs><linearGradient id="grad1_7" x1="0%" y1="0%" x2="100%" y2="100%"><stop offset="30%" stop-color="#1d2540" stop-opacity="1"></stop><stop offset="70%" stop-color="#001220" stop-opacity="1"></stop></linearGradient></defs><defs><linearGradient id="grad2_0" x1="0%" y1="0%" x2="100%" y2="100%"><stop offset="30%" stop-color="#fbae3c" stop-opacity="1"></stop><stop offset="70%" stop-color="#fbae3c" stop-opacity="1"></stop></linearGradient></defs><defs><linearGradient id="grad2_1" x1="0%" y1="0%" x2="100%" y2="100%"><stop offset="30%" stop-color="#f48350" stop-opacity="1"></stop><stop offset="70%" stop-color="#fbae3c" stop-opacity="1"></stop></linearGradient></defs><defs><linearGradient id="grad2_2" x1="0%" y1="0%" x2="100%" y2="100%"><stop offset="30%" stop-color="#f48350" stop-opacity="1"></stop><stop offset="70%" stop-color="#d96162" stop-opacity="1"></stop></linearGradient></defs><defs><linearGradient id="grad2_3" x1="0%" y1="0%" x2="100%" y2="100%"><stop offset="30%" stop-color="#af4b6d" stop-opacity="1"></stop><stop offset="70%" stop-color="#d96162" stop-opacity="1"></stop></linearGradient></defs><defs><linearGradient id="grad2_4" x1="0%" y1="0%" x2="100%" y2="100%"><stop offset="30%" stop-color="#af4b6d" stop-opacity="1"></stop><stop offset="70%" stop-color="#7c3e6b" stop-opacity="1"></stop></linearGradient></defs><defs><linearGradient id="grad2_5" x1="0%" y1="0%" x2="100%" y2="100%"><stop offset="30%" stop-color="#49335c" stop-opacity="1"></stop><stop offset="70%" stop-color="#7c3e6b" stop-opacity="1"></stop></linearGradient></defs><defs><linearGradient id="grad2_6" x1="0%" y1="0%" x2="100%" y2="100%"><stop offset="30%" stop-color="#49335c" stop-opacity="1"></stop><stop offset="70%" stop-color="#1d2540" stop-opacity="1"></stop></linearGradient></defs><defs><linearGradient id="grad2_7" x1="0%" y1="0%" x2="100%" y2="100%"><stop offset="30%" stop-color="#001220" stop-opacity="1"></stop><stop offset="70%" stop-color="#1d2540" stop-opacity="1"></stop></linearGradient></defs><g transform="translate(270, 0)"><path d="M0 270C-33.4 265.4 -66.8 260.7 -103.3 249.4C-139.8 238.2 -179.4 220.3 -188.1 188.1C-196.7 155.9 -174.4 109.5 -182.9 75.8C-191.4 42 -230.7 21 -270 0L0 0Z" fill="#0c1c30"></path><path d="M0 236.3C-29.2 232.2 -58.5 228.1 -90.4 218.3C-122.4 208.4 -157 192.7 -164.6 164.6C-172.1 136.4 -152.6 95.8 -160.1 66.3C-167.5 36.8 -201.9 18.4 -236.2 0L0 0Z" fill="#312c4f"></path><path d="M0 202.5C-25.1 199 -50.1 195.5 -77.5 187.1C-104.9 178.6 -134.6 165.2 -141.1 141.1C-147.6 116.9 -130.8 82.1 -137.2 56.8C-143.6 31.5 -173 15.8 -202.5 0L0 0Z" fill="#623965"></path><path d="M0 168.8C-20.9 165.9 -41.8 163 -64.6 155.9C-87.4 148.9 -112.1 137.7 -117.6 117.6C-123 97.5 -109 68.4 -114.3 47.4C-119.6 26.3 -144.2 13.1 -168.7 0L0 0Z" fill="#96446e"></path><path d="M0 135C-16.7 132.7 -33.4 130.4 -51.7 124.7C-69.9 119.1 -89.7 110.1 -94 94C-98.4 78 -87.2 54.7 -91.5 37.9C-95.7 21 -115.4 10.5 -135 0L0 0Z" fill="#c55469"></path><path d="M0 101.3C-12.5 99.5 -25.1 97.8 -38.7 93.5C-52.4 89.3 -67.3 82.6 -70.5 70.5C-73.8 58.5 -65.4 41.1 -68.6 28.4C-71.8 15.8 -86.5 7.9 -101.2 0L0 0Z" fill="#e9705a"></path><path d="M0 67.5C-8.4 66.3 -16.7 65.2 -25.8 62.4C-35 59.5 -44.9 55.1 -47 47C-49.2 39 -43.6 27.4 -45.7 18.9C-47.9 10.5 -57.7 5.3 -67.5 0L0 0Z" fill="#fa9845"></path><path d="M0 33.8C-4.2 33.2 -8.4 32.6 -12.9 31.2C-17.5 29.8 -22.4 27.5 -23.5 23.5C-24.6 19.5 -21.8 13.7 -22.9 9.5C-23.9 5.3 -28.8 2.6 -33.7 0L0 0Z" fill="#fbae3c"></path></g><g transform="translate(0, 1000)"><path d="M0 -270C28.3 -253.2 56.6 -236.3 94.1 -227.3C131.7 -218.2 178.4 -216.9 190.9 -190.9C203.5 -165 181.9 -114.4 189.4 -78.5C196.9 -42.5 233.4 -21.3 270 0L0 0Z" fill="#0c1c30"></path><path d="M0 -236.2C24.8 -221.5 49.6 -206.8 82.4 -198.9C115.2 -190.9 156.1 -189.8 167.1 -167.1C178 -144.3 159.2 -100.1 165.7 -68.6C172.3 -37.2 204.3 -18.6 236.3 0L0 0Z" fill="#312c4f"></path><path d="M0 -202.5C21.2 -189.9 42.5 -177.3 70.6 -170.5C98.7 -163.6 133.8 -162.7 143.2 -143.2C152.6 -123.7 136.4 -85.8 142 -58.8C147.7 -31.9 175.1 -15.9 202.5 0L0 0Z" fill="#623965"></path><path d="M0 -168.7C17.7 -158.2 35.4 -147.7 58.8 -142C82.3 -136.4 111.5 -135.5 119.3 -119.3C127.2 -103.1 113.7 -71.5 118.4 -49C123.1 -26.6 145.9 -13.3 168.8 0L0 0Z" fill="#96446e"></path><path d="M0 -135C14.2 -126.6 28.3 -118.2 47.1 -113.6C65.8 -109.1 89.2 -108.4 95.5 -95.5C101.7 -82.5 91 -57.2 94.7 -39.2C98.4 -21.3 116.7 -10.6 135 0L0 0Z" fill="#c55469"></path><path d="M0 -101.2C10.6 -94.9 21.2 -88.6 35.3 -85.2C49.4 -81.8 66.9 -81.3 71.6 -71.6C76.3 -61.9 68.2 -42.9 71 -29.4C73.8 -15.9 87.5 -8 101.3 0L0 0Z" fill="#e9705a"></path><path d="M0 -67.5C7.1 -63.3 14.2 -59.1 23.5 -56.8C32.9 -54.5 44.6 -54.2 47.7 -47.7C50.9 -41.2 45.5 -28.6 47.3 -19.6C49.2 -10.6 58.4 -5.3 67.5 0L0 0Z" fill="#fa9845"></path><path d="M0 -33.7C3.5 -31.6 7.1 -29.5 11.8 -28.4C16.5 -27.3 22.3 -27.1 23.9 -23.9C25.4 -20.6 22.7 -14.3 23.7 -9.8C24.6 -5.3 29.2 -2.7 33.8 0L0 0Z" fill="#fbae3c"></path></g></svg>