<svg id="visual" viewBox="0 0 2000 2000" width="2000" height="2000" xmlns="http://www.w3.org/2000/svg" xmlns:xlink="http://www.w3.org/1999/xlink" version="1.1"><rect width="2000" height="2000" fill="#d0c3b1"></rect><g><g transform="translate(1373 293)"><path d="M129.2 -41.5C147.1 13 127.1 80.2 82.4 112.5C37.6 144.9 -31.9 142.2 -76 109.1C-120.2 76 -138.9 12.4 -122 -40.8C-105.1 -93.9 -52.6 -136.6 1.6 -137.1C55.7 -137.6 111.4 -96 129.2 -41.5Z" fill="none" stroke="#468543" stroke-width="29"></path></g><g transform="translate(705 1203)"><path d="M81.7 -28C91.8 4.5 76.2 43.9 48.2 63.7C20.2 83.4 -20.3 83.5 -47.4 64C-74.5 44.6 -88.3 5.7 -78.2 -26.9C-68.1 -59.5 -34 -85.7 0.9 -86C35.8 -86.3 71.6 -60.6 81.7 -28Z" stroke="#468543" fill="none" stroke-width="29"></path></g><g transform="translate(1643 755)"><path d="M71.8 -25.4C80.7 4 67 38.7 39.7 59.7C12.4 80.8 -28.5 88.1 -53.2 70.7C-78 53.3 -86.6 11.2 -75 -21.9C-63.5 -55 -31.7 -79 -0.2 -78.9C31.4 -78.9 62.9 -54.8 71.8 -25.4Z" stroke="#468543" fill="none" stroke-width="29"></path></g><g transform="translate(589 1690)"><path d="M79.4 -24.9C92.7 15.1 86.2 62.4 58.3 83.4C30.4 104.4 -18.9 99.2 -53.4 74C-87.9 48.8 -107.5 3.8 -96.1 -33.6C-84.7 -71 -42.4 -100.7 -4.7 -99.2C33 -97.7 66.1 -65 79.4 -24.9Z" stroke="#468543" fill="none" stroke-width="29"></path></g><g transform="translate(1716 1499)"><path d="M106.9 -42.9C120.3 6.3 100.2 58.2 61.7 86.5C23.3 114.8 -33.4 119.4 -74 92.2C-114.5 65 -138.9 6 -123.9 -45.6C-108.9 -97.1 -54.4 -141.2 -3.8 -139.9C46.8 -138.7 93.6 -92.2 106.9 -42.9Z" stroke="#468543" fill="none" stroke-width="29"></path></g><g transform="translate(1082 1492)"><path d="M110.9 -41.3C122.6 -0.2 96.2 47.9 58 74.5C19.7 101 -30.3 105.8 -60.1 83.9C-89.8 62 -99.2 13.4 -85.8 -30.2C-72.4 -73.7 -36.2 -112.1 6.7 -114.3C49.6 -116.5 99.3 -82.4 110.9 -41.3Z" stroke="#468543" fill="none" stroke-width="29"></path></g><g transform="translate(1048 991)"><path d="M127.3 -37.5C144.6 11.6 123.9 76.8 80.3 107.8C36.8 138.9 -29.7 135.6 -69.6 104.6C-109.5 73.5 -122.8 14.6 -106.8 -32.8C-90.8 -80.2 -45.4 -116.2 4.8 -117.7C55.1 -119.3 110.1 -86.5 127.3 -37.5Z" stroke="#468543" fill="none" stroke-width="29"></path></g><g transform="translate(957 347)"><path d="M81.9 -24.5C96.7 19.1 92.9 70.8 61.5 96.3C30.2 121.8 -28.6 121 -66.1 93.2C-103.6 65.4 -119.8 10.6 -105.2 -32.5C-90.6 -75.6 -45.3 -107.1 -5.9 -105.1C33.5 -103.2 67 -68 81.9 -24.5Z" stroke="#468543" fill="none" stroke-width="29"></path></g><g transform="translate(215 942)"><path d="M108.8 -38.3C123.6 10.1 106.1 66 68.8 92.7C31.5 119.3 -25.7 116.7 -62.3 89.2C-98.9 61.8 -114.9 9.6 -101.1 -37.5C-87.3 -84.6 -43.7 -126.6 1.7 -127.1C47 -127.7 94.1 -86.7 108.8 -38.3Z" stroke="#468543" fill="none" stroke-width="29"></path></g><g transform="translate(293 220)"><path d="M120.3 -49.7C132.5 -1.6 102.8 49.5 61.4 78C20.1 106.4 -32.9 112.3 -73.8 86.2C-114.8 60 -143.8 2 -129.5 -49.1C-115.2 -100.1 -57.6 -144.1 -1.8 -143.5C54.1 -142.9 108.1 -97.8 120.3 -49.7Z" stroke="#468543" fill="none" stroke-width="29"></path></g><g transform="translate(663 805)"><path d="M64 -23.2C73.7 9.2 66 44.7 42.7 62.7C19.3 80.6 -19.8 80.8 -45.8 62.2C-71.7 43.5 -84.6 5.9 -74.7 -26.6C-64.9 -59 -32.5 -86.4 -2.7 -85.6C27.1 -84.7 54.2 -55.6 64 -23.2Z" stroke="#468543" fill="none" stroke-width="29"></path></g><g transform="translate(1415 1776)"><path d="M69 -25.9C76.1 -0.4 59.5 29.4 35.9 45.7C12.2 62 -18.5 64.9 -38.6 50.9C-58.7 36.8 -68.1 5.8 -59.8 -21.1C-51.6 -48.1 -25.8 -71 2.5 -71.8C30.9 -72.7 61.8 -51.4 69 -25.9Z" stroke="#468543" fill="none" stroke-width="29"></path></g><g transform="translate(227 1458)"><path d="M86.6 -27.2C100.9 15.7 93.2 66.7 61.4 91.5C29.6 116.3 -26.4 114.8 -60.5 88.7C-94.6 62.6 -106.8 12 -93.1 -30.2C-79.4 -72.3 -39.7 -106 -1.8 -105.4C36.2 -104.8 72.4 -70.1 86.6 -27.2Z" stroke="#468543" fill="none" stroke-width="29"></path></g><g transform="translate(1422 1240)"><path d="M47.4 -14.1C55.2 8.5 51 36.4 31.7 52.5C12.4 68.7 -21.9 73 -44 57.6C-66.2 42.3 -76.1 7.2 -66.8 -17.7C-57.4 -42.5 -28.7 -56.9 -4.4 -55.5C19.8 -54.1 39.7 -36.7 47.4 -14.1Z" stroke="#468543" fill="none" stroke-width="29"></path></g></g></svg>